<?xml version="1.0" encoding="UTF-8" standalone="no"?>
<!-- Created with Inkscape (http://www.inkscape.org/) -->

<svg
   xmlns:dc="http://purl.org/dc/elements/1.1/"
   xmlns:cc="http://creativecommons.org/ns#"
   xmlns:rdf="http://www.w3.org/1999/02/22-rdf-syntax-ns#"
   xmlns:svg="http://www.w3.org/2000/svg"
   xmlns="http://www.w3.org/2000/svg"
   xmlns:xlink="http://www.w3.org/1999/xlink"
   xmlns:sodipodi="http://sodipodi.sourceforge.net/DTD/sodipodi-0.dtd"
   xmlns:inkscape="http://www.inkscape.org/namespaces/inkscape"
   width="1024"
   height="1024"
   viewBox="0 0 270.93333 270.93334"
   version="1.1"
   id="svg8"
   inkscape:version="0.92.1 r15371"
   sodipodi:docname="logo.svg">
  <defs
     id="defs2">
    <symbol
       id="icon-heart"
       viewBox="0 0 28 28">
      <title
         id="title68119">heart</title>
      <path
         style="stroke-width:0.26458332"
         inkscape:connector-curvature="0"
         d="m 3.7041667,6.8791667 c -0.066146,0 -0.1322917,-0.024871 -0.1820334,-0.074348 L 0.94244583,4.3161479 C 0.90937292,4.2873083 -2.6458333e-4,3.4562521 -2.6458333e-4,2.4640646 c 0,-1.2112625 0.74003958333,-1.93489793 1.97617288333,-1.93489793 0.7233709,0 1.4014979,0.57044163 1.7279938,0.89296873 0.3264958,-0.3225271 1.0046229,-0.89296873 1.7279937,-0.89296873 1.2361334,0 1.9761729,0.72337083 1.9761729,1.93489793 0,0.9921875 -0.9093729,1.8232437 -0.9466791,1.8602854 L 3.8859354,6.8048187 c -0.049477,0.049477 -0.1158875,0.074348 -0.1820333,0.074348 z"
         id="path68121" />
    </symbol>
    <symbol
       id="icon-bitcoin"
       viewBox="0 0 21 28">
      <title
         id="title69634">bitcoin</title>
      <path
         style="stroke-width:0.26458332"
         inkscape:connector-curvature="0"
         d="m 4.8244125,2.6458333 c 0.05371,0.5498042 -0.1778,0.8805334 -0.5416021,1.0665354 C 4.886325,3.8570958 5.2667958,4.2166646 5.1921833,5.02285 5.0971979,6.0274729 4.352925,6.2962896 3.2863896,6.3539687 v 1.0541 H 2.6498021 V 6.3703729 c -0.1611313,0 -0.3307292,0 -0.5042958,-0.00423 V 7.4080687 H 1.5089188 v -1.0541 c -0.1486959,0 -0.2976563,-0.00423 -0.4505855,-0.00423 H 0.23151042 l 0.12805833,-0.756447 c 0.46725417,0.0082 0.4587875,0 0.4587875,0 0.1778,0 0.22727705,-0.1280584 0.23971255,-0.210873 V 3.7205708 h 0.066146 c -0.024871,-0.00423 -0.049477,-0.00423 -0.066146,-0.00423 V 2.5299458 C 1.0331979,2.3976542 0.95064792,2.2489583 0.69003333,2.2489583 c 0,0 0.008202,-0.0082 -0.4587875,0 V 1.5710958 l 0.87656457,0.00423 c 0.1280583,0 0.2645833,0 0.4011084,-0.00423 V 0.52916667 H 2.1455063 V 1.5501937 c 0.1695979,-0.00423 0.3389312,-0.0082 0.5042958,-0.0082 V 0.52916667 H 3.2863896 V 1.5710958 C 4.1050104,1.641475 4.7540333,1.8936229 4.8241479,2.6458333 Z M 3.9356771,4.899025 c 0,-0.8186208 -1.3477875,-0.6987646 -1.7777354,-0.6987646 V 5.597525 c 0.4299479,0 1.7777354,0.091017 1.7777354,-0.6987646 z M 3.6422542,2.9310542 c 0,-0.7482417 -1.1244792,-0.6365875 -1.484048,-0.6365875 v 1.2692062 c 0.3595688,0 1.484048,0.082815 1.484048,-0.6326187 z"
         id="path69636" />
    </symbol>
  </defs>
  <sodipodi:namedview
     id="base"
     pagecolor="#ffffff"
     bordercolor="#666666"
     borderopacity="1.0"
     inkscape:pageopacity="0.0"
     inkscape:pageshadow="2"
     inkscape:zoom="0.49497475"
     inkscape:cx="543.78615"
     inkscape:cy="503.02206"
     inkscape:document-units="mm"
     inkscape:current-layer="layer1"
     showgrid="false"
     units="px"
     inkscape:window-width="1364"
     inkscape:window-height="743"
     inkscape:window-x="0"
     inkscape:window-y="23"
     inkscape:window-maximized="1" />
  <metadata
     id="metadata5">
    <rdf:RDF>
      <cc:Work
         rdf:about="">
        <dc:format>image/svg+xml</dc:format>
        <dc:type
           rdf:resource="http://purl.org/dc/dcmitype/StillImage" />
        <dc:title></dc:title>
      </cc:Work>
    </rdf:RDF>
  </metadata>
  <g
     inkscape:label="Layer 1"
     inkscape:groupmode="layer"
     id="layer1"
     transform="translate(0,-26.06665)">
    <rect
       style="fill:#ffffff;fill-opacity:1;stroke-width:0.26458332"
       id="rect91966"
       width="269.40768"
       height="271.01129"
       x="0.52379435"
       y="26.512478"
       inkscape:export-xdpi="96"
       inkscape:export-ydpi="96" />
    <use
       id="use91099"
       transform="matrix(3.4011008,0,0,3.4011008,14.413156,40.92767)"
       style="fill:#72b73e;stroke:none;fill-opacity:1"
       xlink:href="#icon-heart"
       x="0"
       y="0"
       width="100%"
       height="100%" />
  </g>
</svg>
